<svg xmlns="http://www.w3.org/2000/svg" viewBox="10 20 180 562" width="180" height="562">
  <defs>
    <linearGradient id="cdd_shaft" x1="0" y1="0" x2="1" y2="0">
      <stop offset="0" stop-color="#e8dcb8"/>
      <stop offset="0.45" stop-color="#a89072"/>
      <stop offset="1" stop-color="#503820"/>
    </linearGradient>
    <linearGradient id="cdd_cap" x1="0" y1="0" x2="0" y2="1">
      <stop offset="0" stop-color="#fff8d8"/>
      <stop offset="1" stop-color="#9c8460"/>
    </linearGradient>
  </defs>
  <rect x="10" y="540" width="180" height="42" fill="url(#cdd_cap)"/>
  <rect x="20" y="520" width="160" height="22" fill="#dccaa0"/>
  <rect x="30" y="500" width="140" height="18" fill="#b89c70"/>
  <rect x="46" y="90" width="108" height="408" fill="url(#cdd_shaft)"/>
  <rect x="52" y="100" width="4" height="395" fill="#000" opacity="0.18"/>
  <rect x="58" y="100" width="2" height="395" fill="#fff" opacity="0.28"/>
  <rect x="68" y="100" width="4" height="395" fill="#000" opacity="0.18"/>
  <rect x="74" y="100" width="2" height="395" fill="#fff" opacity="0.28"/>
  <rect x="84" y="100" width="4" height="395" fill="#000" opacity="0.18"/>
  <rect x="90" y="100" width="2" height="395" fill="#fff" opacity="0.28"/>
  <rect x="100" y="100" width="4" height="395" fill="#000" opacity="0.18"/>
  <rect x="106" y="100" width="2" height="395" fill="#fff" opacity="0.28"/>
  <rect x="116" y="100" width="4" height="395" fill="#000" opacity="0.18"/>
  <rect x="122" y="100" width="2" height="395" fill="#fff" opacity="0.28"/>
  <rect x="132" y="100" width="4" height="395" fill="#000" opacity="0.18"/>
  <rect x="138" y="100" width="2" height="395" fill="#fff" opacity="0.28"/>
  <rect x="148" y="100" width="4" height="395" fill="#000" opacity="0.18"/>
  <rect x="34" y="68" width="132" height="24" fill="url(#cdd_cap)"/>
  <rect x="22" y="40" width="156" height="26" fill="#e7d6a8"/>
  <rect x="18" y="20" width="164" height="20" fill="#dccaa0"/>
  <rect x="22" y="66" width="156" height="4" fill="#000" opacity="0.22"/>
</svg>
