<svg xmlns="http://www.w3.org/2000/svg" viewBox="0 0 600 460" width="600" height="460">
  <defs>
    <linearGradient id="tmc_roof" x1="0" y1="0" x2="0" y2="1">
      <stop offset="0" stop-color="#d8c498"/>
      <stop offset="1" stop-color="#90785a"/>
    </linearGradient>
    <linearGradient id="tmc_col" x1="0" y1="0" x2="1" y2="0">
      <stop offset="0" stop-color="#e8dab0"/>
      <stop offset="0.5" stop-color="#b89c70"/>
      <stop offset="1" stop-color="#604a30"/>
    </linearGradient>
  </defs>
  <ellipse cx="300" cy="450" rx="240" ry="12" fill="#000" opacity="0.5"/>
  <rect x="80" y="408" width="440" height="44" fill="#a08868"/>
  <rect x="80" y="408" width="440" height="6" fill="#fff" opacity="0.3"/>
  <rect x="100" y="386" width="400" height="22" fill="#b09478"/>
  <!-- 폐허된 신전 (기둥 3개 일부 파손) -->
  <g>
    <rect x="120" y="160" width="48" height="220" fill="url(#tmc_col)"/>
    <rect x="114" y="148" width="60" height="14" fill="#d8c298"/>
    <rect x="110" y="134" width="68" height="14" fill="#e8d5a0"/>
  </g>
  <!-- 두 번째 기둥 — 윗부분 깨짐 -->
  <g>
    <rect x="260" y="220" width="48" height="160" fill="url(#tmc_col)"/>
    <path d="M 254 220 L 314 220 L 296 200 L 280 215 L 268 195 Z" fill="url(#tmc_col)"/>
  </g>
  <!-- 세 번째 기둥 — 중간만 -->
  <g>
    <rect x="400" y="260" width="48" height="120" fill="url(#tmc_col)"/>
    <path d="M 394 260 L 454 260 L 440 245 L 420 255 Z" fill="#7a6248"/>
  </g>
  <!-- 네 번째 기둥 — 완전 -->
  <g>
    <rect x="500" y="160" width="48" height="220" fill="url(#tmc_col)"/>
    <rect x="494" y="148" width="60" height="14" fill="#d8c298"/>
    <rect x="490" y="134" width="68" height="14" fill="#e8d5a0"/>
  </g>
  <!-- 지붕 일부만 (좌측만 남음) -->
  <rect x="80" y="116" width="220" height="22" fill="url(#tmc_roof)"/>
  <path d="M 80 116 L 200 60 L 300 116 Z" fill="url(#tmc_roof)"/>
  <!-- 부서진 잔해 -->
  <rect x="320" y="395" width="60" height="12" fill="#a08470"/>
  <ellipse cx="380" cy="420" rx="32" ry="8" fill="#8a7458"/>
</svg>
